<?xml version="1.0" standalone="no"?>
<!DOCTYPE svg PUBLIC "-//W3C//DTD SVG 20010904//EN"
 "http://www.w3.org/TR/2001/REC-SVG-20010904/DTD/svg10.dtd">
<svg version="1.0" xmlns="http://www.w3.org/2000/svg"
 width="800.000000pt" height="800.000000pt" viewBox="0 0 800.000000 800.000000"
 preserveAspectRatio="xMidYMid meet">
<metadata>
Created by potrace 1.14, written by Peter Selinger 2001-2017
</metadata>
<g transform="translate(0.000000,800.000000) scale(0.100000,-0.100000)"
fill="#000000" stroke="none">
<path d="M3779 7995 c-2 -2 -31 -5 -64 -6 -33 -2 -64 -5 -69 -7 -4 -3 -27 -6
-50 -8 -24 -2 -56 -5 -72 -8 -16 -3 -47 -8 -69 -11 -238 -34 -581 -127 -815
-221 -68 -27 -95 -37 -100 -39 -3 0 -26 -11 -53 -22 -26 -12 -48 -22 -50 -22
-7 1 -245 -121 -336 -173 -113 -64 -348 -216 -374 -242 -9 -9 -18 -16 -22 -16
-5 0 -140 -104 -155 -120 -3 -3 -21 -18 -40 -33 -120 -97 -300 -273 -450 -442
-39 -43 -186 -229 -210 -265 -8 -12 -19 -28 -25 -34 -5 -7 -14 -19 -20 -28 -5
-9 -36 -55 -67 -102 -32 -47 -58 -90 -58 -96 0 -5 -4 -10 -9 -10 -5 0 -14 -14
-21 -31 -7 -17 -18 -36 -24 -42 -17 -18 -154 -285 -204 -397 -24 -53 -103
-250 -107 -265 -1 -5 -5 -17 -8 -25 -11 -28 -67 -205 -72 -225 -2 -11 -18 -71
-34 -132 -16 -62 -32 -127 -35 -145 -3 -18 -10 -55 -16 -83 -6 -27 -13 -66
-15 -85 -3 -19 -7 -44 -9 -56 -6 -27 -17 -118 -21 -169 -2 -22 -5 -40 -5 -40
-13 0 -19 -612 -7 -730 8 -80 17 -157 23 -199 4 -21 8 -53 10 -70 4 -45 52
-279 70 -350 9 -34 18 -68 19 -76 2 -8 4 -15 5 -15 1 0 3 -10 6 -23 2 -13 13
-52 25 -88 11 -35 22 -70 23 -77 2 -6 6 -19 9 -27 3 -8 17 -48 31 -88 66 -188
177 -432 268 -590 26 -46 48 -85 48 -87 0 -8 85 -140 92 -143 5 -2 8 -8 8 -13
0 -15 214 -313 255 -355 6 -6 27 -31 46 -54 94 -117 302 -326 444 -447 28 -23
61 -52 75 -63 14 -12 36 -30 50 -41 14 -10 43 -33 65 -49 22 -17 47 -36 56
-43 8 -7 22 -16 31 -22 8 -5 56 -38 106 -72 50 -35 96 -63 101 -63 5 0 11 -4
13 -8 8 -21 371 -213 538 -285 144 -61 444 -166 530 -184 34 -7 43 -9 60 -16
21 -8 71 -18 98 -20 12 0 22 -4 22 -7 0 -3 8 -6 18 -7 9 0 55 -8 102 -18 47
-9 99 -18 115 -20 17 -1 31 -4 33 -5 1 -1 10 -3 20 -4 9 -1 42 -5 72 -9 119
-16 171 -19 355 -21 171 -1 306 5 405 19 19 3 55 7 80 10 25 3 95 14 155 25
106 19 131 23 185 35 14 4 36 8 50 11 14 3 34 8 45 11 11 4 25 8 30 9 74 16
348 102 400 124 11 5 71 29 133 55 105 42 314 142 407 195 131 74 261 154 330
204 107 77 262 194 280 210 11 12 48 44 80 71 92 77 312 299 406 410 95 111
239 301 239 315 0 4 4 10 8 12 11 4 92 126 92 138 0 5 3 10 8 12 7 3 63 95
119 198 59 106 120 233 173 355 11 28 25 59 30 70 5 11 22 54 38 95 16 41 33
84 37 95 4 11 9 25 11 30 2 6 17 55 33 110 17 55 33 109 35 120 2 11 11 49 20
85 9 36 16 68 16 73 0 4 -1240 7 -2755 7 l-2755 0 42 -67 c108 -174 345 -432
457 -497 9 -6 27 -20 41 -33 14 -13 28 -23 32 -23 3 0 33 -17 65 -39 51 -34
262 -141 278 -141 3 0 22 -7 43 -16 20 -10 42 -18 47 -19 6 -2 39 -12 75 -23
73 -22 236 -57 320 -68 71 -9 363 -9 417 0 23 4 55 9 70 11 99 15 127 21 229
51 49 15 99 29 112 31 12 3 22 10 22 15 0 5 4 7 9 3 9 -5 304 140 332 163 8 7
50 38 94 71 107 78 152 118 245 217 60 64 104 118 166 204 l39 55 293 0 c190
0 292 -3 292 -10 -1 -41 -206 -373 -285 -461 -5 -6 -35 -40 -65 -75 -132 -152
-362 -353 -470 -409 -14 -7 -29 -19 -33 -26 -4 -8 -12 -14 -18 -14 -5 0 -27
-11 -49 -25 -39 -25 -200 -109 -210 -110 -3 0 -10 -4 -17 -8 -12 -7 -190 -78
-208 -82 -5 -1 -17 -5 -25 -8 -34 -14 -158 -48 -190 -53 -19 -3 -39 -8 -44
-11 -4 -3 -20 -7 -35 -9 -14 -1 -37 -5 -50 -8 -13 -3 -49 -8 -80 -12 -31 -3
-65 -8 -76 -10 -15 -3 -171 -14 -240 -16 -20 -1 -261 13 -285 16 -464 63 -846
223 -1195 501 -98 78 -259 233 -322 311 -97 120 -123 153 -123 159 0 3 -8 14
-18 25 -54 59 -242 414 -266 505 -2 6 -6 18 -10 27 -4 9 -8 22 -10 30 -1 7 -4
18 -7 23 -6 10 -17 49 -19 70 -1 6 -6 16 -12 23 -6 6 -8 12 -5 12 3 0 -1 17
-10 37 -8 21 -15 40 -14 43 1 5 -1 16 -22 130 -4 19 -9 46 -11 60 -2 14 -6 32
-8 40 -3 13 316 15 2812 15 1549 1 2820 4 2825 7 8 5 13 509 6 608 -1 13 -57
15 -446 15 -303 -1 -445 2 -447 10 0 5 -2 15 -3 20 -1 6 -5 35 -9 65 -4 30 -9
62 -11 70 -2 8 -6 26 -10 40 -3 14 -8 39 -11 57 -3 17 -14 62 -25 100 -12 37
-24 82 -28 98 -5 17 -15 47 -24 67 -8 20 -13 39 -9 42 3 3 365 6 804 6 l798 0
-5 28 c-45 213 -145 504 -250 727 -37 80 -115 235 -140 280 -15 28 -35 64 -44
80 -25 45 -191 302 -213 330 -5 6 -38 50 -76 100 -37 49 -74 97 -82 106 -8 9
-37 43 -65 75 -101 121 -393 404 -500 485 -16 13 -32 26 -35 29 -3 4 -36 30
-75 58 -38 28 -76 56 -82 62 -17 14 -204 140 -208 140 -2 0 -41 23 -87 52 -92
57 -386 208 -405 208 -7 0 -13 5 -13 10 0 6 -3 9 -7 8 -5 -1 -78 25 -163 58
-85 33 -175 66 -200 73 -25 8 -54 17 -65 21 -11 5 -29 11 -40 13 -11 3 -56 15
-100 27 -44 12 -87 23 -95 25 -8 2 -35 8 -60 15 -25 7 -54 14 -65 15 -11 2
-60 11 -110 20 -49 9 -101 18 -115 20 -14 2 -43 6 -65 9 -22 3 -65 9 -95 12
-30 3 -73 7 -95 10 -55 6 -441 14 -446 9z m291 -1661 c41 -4 92 -7 112 -8 21
-1 38 -3 38 -6 0 -4 10 -6 23 -7 74 -2 464 -108 492 -134 5 -5 15 -9 22 -9 28
0 304 -142 385 -198 26 -17 49 -32 53 -32 4 0 12 -6 19 -12 8 -7 24 -20 36
-28 128 -86 358 -306 470 -450 19 -25 38 -46 42 -48 4 -2 8 -8 8 -14 0 -6 14
-27 30 -48 17 -21 30 -43 30 -48 0 -6 6 -15 13 -19 7 -4 18 -19 24 -33 7 -14
24 -43 37 -65 24 -38 119 -228 135 -270 5 -11 13 -31 19 -45 66 -153 129 -406
148 -595 3 -33 7 -76 10 -95 5 -41 5 -254 -1 -290 -2 -14 -4 -37 -4 -51 l-1
-26 -252 2 c-139 1 -255 3 -258 3 -3 1 -4 85 -4 187 1 102 -1 185 -5 185 -3 0
-7 17 -8 38 -4 91 -35 228 -89 391 -58 174 -201 422 -332 574 -99 114 -284
279 -374 332 -9 6 -49 29 -87 53 -116 70 -305 153 -416 182 -16 5 -55 15 -85
23 -47 12 -99 23 -170 33 -208 30 -485 19 -660 -26 -19 -5 -46 -11 -60 -14
-14 -2 -50 -13 -80 -22 -30 -10 -57 -18 -60 -19 -8 -3 -43 -17 -87 -36 -24
-10 -43 -16 -43 -14 0 3 -122 -58 -197 -101 -45 -25 -173 -111 -183 -123 -3
-3 -23 -19 -45 -36 -82 -61 -228 -214 -333 -350 -5 -5 -17 -25 -27 -42 -11
-18 -23 -33 -27 -33 -4 0 -8 -5 -8 -10 0 -6 -11 -28 -25 -50 l-25 -40 1540 0
1540 0 29 -59 c39 -77 98 -219 122 -295 33 -102 59 -209 53 -215 -3 -3 -903
-6 -2000 -6 l-1995 -1 5 41 c2 22 12 74 21 115 21 98 24 109 31 148 3 18 10
35 15 38 5 3 7 10 3 15 -3 5 -1 15 4 22 6 7 15 32 22 56 6 24 16 55 22 70 6
14 12 28 13 31 1 3 8 21 15 40 19 51 159 322 176 341 8 8 14 18 14 22 0 12
139 203 194 266 41 47 234 239 274 273 50 42 172 132 222 164 25 16 47 32 50
35 3 3 15 9 27 13 13 4 29 14 37 21 18 18 241 126 331 160 152 58 396 123 482
128 13 1 23 4 23 7 0 3 19 5 43 6 40 1 210 15 214 18 4 3 207 -4 273 -10z"/>
</g>
</svg>
