<svg width="18" height="18" viewBox="0 0 18 18" fill="none" xmlns="http://www.w3.org/2000/svg">
<path fill-rule="evenodd" clip-rule="evenodd" d="M7.62276 14.3626L7.5998 14.3177L0.896851 10.158L3.2842 8.44915L5.25836 0.894287L7.64571 2.60312L15.6112 2.10846L14.693 4.85159L17.6313 12.1142H14.67L14.6471 12.1366L8.51802 17.1058L7.62276 14.3626Z" fill="#333333"/>
<path fill-rule="evenodd" clip-rule="evenodd" d="M7.62264 14.2951V14.34L12.2596 12.0916L13.1319 12.1141H14.647H14.6699L14.5781 11.4395L13.9354 7.09997L14.6929 4.87398H14.6699L14.6011 4.8515L9.5968 3.99708L7.6456 2.60303V2.62551L7.04876 3.70478L5.23529 7.07748L3.37591 8.40408L3.28409 8.47153L6.88807 12.0916L7.62264 14.2951Z" fill="#F5002C"/>
</svg>
